PathFileType	3	(X/Y/Z)	F:\ViconData\AntennenMessung\Messung1\Session1\ID18.trc
DataRate	CameraRate	NumFrames	NumMarkers	Units	OrigDataRate	OrigDataStartFrame	OrigNumFrames
120.0	120.0	4	70	mm	120.0	128	1020	
Frame#	Time	Ashort			Along			Atop			A4			Bshort			Blong			Btop			B4			Cshort			Clong			Ctop			C4			Dshort			Dlong			Dtop			D4			Eshort			Elong			Etop			E4			Fshort			Flong			Ftop			F4			Gshort			Glong			Gtop			G4			Hshort			Hlong			Htop			H4			I1			I2			I3			I4			I5			WandAshort			WandAlong			WandAtop			WandA4			WandA15			WandBshort			WandB4			WandB5			WandBtop			WandBlong			WandCshort			WandClong			WandCtop			WandC4			WandC5			Acenter			Aantenna			Bcenter			Bantenna			Ccenter			Cantenna			Dcenter			Dantenna			Ecenter			Eantenna			Fcenter			Fantenna			Gcenter			Gantenna			Hcenter			Hantenna			Icenter			Iantenna			
		X1	Y1	Z1	X2	Y2	Z2	X3	Y3	Z3	X4	Y4	Z4	X5	Y5	Z5	X6	Y6	Z6	X7	Y7	Z7	X8	Y8	Z8	X9	Y9	Z9	X10	Y10	Z10	X11	Y11	Z11	X12	Y12	Z12	X13	Y13	Z13	X14	Y14	Z14	X15	Y15	Z15	X16	Y16	Z16	X17	Y17	Z17	X18	Y18	Z18	X19	Y19	Z19	X20	Y20	Z20	X21	Y21	Z21	X22	Y22	Z22	X23	Y23	Z23	X24	Y24	Z24	X25	Y25	Z25	X26	Y26	Z26	X27	Y27	Z27	X28	Y28	Z28	X29	Y29	Z29	X30	Y30	Z30	X31	Y31	Z31	X32	Y32	Z32	X33	Y33	Z33	X34	Y34	Z34	X35	Y35	Z35	X36	Y36	Z36	X37	Y37	Z37	X38	Y38	Z38	X39	Y39	Z39	X40	Y40	Z40	X41	Y41	Z41	X42	Y42	Z42	X43	Y43	Z43	X44	Y44	Z44	X45	Y45	Z45	X46	Y46	Z46	X47	Y47	Z47	X48	Y48	Z48	X49	Y49	Z49	X50	Y50	Z50	X51	Y51	Z51	X52	Y52	Z52	X53	Y53	Z53	X54	Y54	Z54	X55	Y55	Z55	X56	Y56	Z56	X57	Y57	Z57	X58	Y58	Z58	X59	Y59	Z59	X60	Y60	Z60	X61	Y61	Z61	X62	Y62	Z62	X63	Y63	Z63	X64	Y64	Z64	X65	Y65	Z65	X66	Y66	Z66	X67	Y67	Z67	X68	Y68	Z68	X69	Y69	Z69	X70	Y70	Z70	
128	1.0583333	-1038.1982	214.35007	-1644.2345	-1109.41	204.0291	-1599.3143	-1063.7999	173.12296	-1625.6709	-1054.2128	262.23087	-1634.9745	-1353.0751	234.82622	1003.7814	-1281.4083	227.10886	1052.5375	-1322.8948	193.73096	1021.0396	-1284.783	287.84955	1052.9	813.93524	187.69395	1209.4856	892.60602	179.08965	1178.7681	844.29364	145.59908	1198.1843	860.67572	292.64001	1167.5732	1115.6825	209.53886	-1401.6145	1056.1232	194.03255	-1460.3411	1095.1171	162.37619	-1423.928	1069.7958	238.63388	-1425.8354	-1204.5298	1685.9341	-1563.2168	-1129.1736	1688.267	-1606.0322	-1173.1617	1724.3539	-1581.9803	-1134.088	1580.9518	-1603.8802	-1239.6626	1699.1835	1119.4891	-1308.2175	1699.1814	1068.3124	-1270.4233	1736.2899	1096.8723	-1245.4761	1592.7345	1110.6914	988.91168	1664.2505	1162.269	955.84772	1702.3364	1181.0892	922.85565	1662.0057	1215.0581	939.82733	1659.4425	1159.8773	999.00348	1668.4211	-1579.4625	1058.8414	1670.1443	-1518.6721	1024.9338	1708.0061	-1551.1547	1059.2168	1672.1224	-1585.4978	-261.34824	164.25584	-221.5607	-346.74973	172.89944	-224.69173	-303.27301	129.07549	-221.94987	-299.59802	169.40196	-191.69888	-297.89496	166.32941	-270.2157																																														-1068.7053	209.92857	-1624.9907	-1073.8567	248.58025	-1624.2765	-1321.6414	231.44131	1025.1661	-1320.3534	270.18875	1029.4062	847.75037	183.99554	1196.2821	851.2431	222.79126	1194.3602	1088.7975	202.53934	-1428.1235	1082.7675	240.86183	-1432.1267	-1171.8821	1686.9447	-1581.7662	-1170.5487	1647.9681	-1581.5435	-1270.2565	1699.1825	1096.6505	-1270.0814	1660.1836	1096.4174	953.63287	1704.8875	1182.35	972.96289	1731.8198	1161.8073	1026.4658	1669.2119	-1551.5629	1028.0048	1630.2445	-1551.9731	-299.28699	168.09566	-222.95161	-295.32495	206.8811	-223.94734
129	1.0666667	-1038.2394	214.50212	-1644.2278	-1109.3839	204.07829	-1599.3151	-1063.7096	173.16728	-1625.6738	-1054.234	262.21246	-1634.9963	-1352.9835	234.88428	1003.5677	-1281.4198	227.01787	1052.4795	-1322.8849	193.75578	1020.9852	-1284.6349	287.86502	1052.8535	813.95605	187.54231	1209.4601	892.6853	178.98524	1178.8345	844.30951	145.53374	1198.2555	860.7254	292.53195	1167.6906	1115.7198	209.79854	-1401.7919	1056.1266	193.99434	-1460.3578	1095.135	162.42911	-1423.964	1069.7916	238.60892	-1425.7975	-1204.5204	1685.9296	-1563.2086	-1129.1753	1688.285	-1606.0361	-1173.1888	1724.4117	-1581.9545	-1134.0753	1580.9498	-1603.8853	-1239.6864	1699.2246	1119.5112	-1308.3525	1699.2166	1068.5848	-1270.3928	1736.2544	1096.863	-1245.4204	1592.5928	1110.6536	988.87811	1664.2141	1162.2606	955.84698	1702.3203	1181.1101	922.76361	1661.9352	1215.0618	939.78088	1659.3866	1159.9203	998.98584	1668.4098	-1579.4529	1058.8359	1670.1462	-1518.6693	1024.9225	1708.0032	-1551.1494	1059.213	1672.1171	-1585.5078	-261.34183	164.24957	-221.62323	-346.75317	172.92194	-224.68314	-303.28076	129.07126	-221.90715	-299.55853	169.44109	-191.66649	-297.86154	166.34854	-270.12149																																														-1068.6898	210.04063	-1625.0046	-1073.9089	248.68347	-1624.3035	-1321.5317	231.42705	1025.064	-1320.1399	270.17572	1029.2594	847.72504	183.87195	1196.3239	851.18158	222.66928	1194.3691	1088.7388	202.64316	-1428.3076	1082.6473	240.94173	-1432.4443	-1171.9012	1686.9491	-1581.7498	-1170.5618	1647.9728	-1581.537	-1270.33	1699.2209	1096.7842	-1270.2639	1660.2211	1096.7013	953.638	1704.8687	1182.3706	973.00568	1731.8009	1161.8634	1026.4575	1669.2068	-1551.5525	1027.9994	1630.2394	-1551.9576	-299.27924	168.10159	-222.98235	-295.30316	206.88367	-224.0507
130	1.075	-1038.2568	214.51064	-1644.2396	-1109.3893	204.08572	-1599.3199	-1063.7491	173.17075	-1625.6772	-1054.2168	262.21402	-1634.9868	-1352.9043	234.90186	1003.6582	-1281.4255	226.98701	1052.5502	-1322.9692	193.67952	1021.0484	-1284.7565	287.87799	1052.8099	813.88483	187.69499	1209.5056	892.60028	179.13818	1178.8162	844.61963	145.27698	1198.3628	860.70203	292.68875	1167.5535	1115.6826	209.53978	-1401.6179	1056.1527	194.04764	-1460.3613	1095.1365	162.43295	-1423.9507	1069.798	238.64995	-1425.806	-1204.5168	1685.9347	-1563.22	-1129.1838	1688.2742	-1606.0415	-1173.1995	1724.4291	-1581.9553	-1134.0869	1580.9314	-1603.8708	-1239.6632	1699.2	1119.5023	-1308.9146	1698.1274	1071.6927	-1270.4047	1736.2655	1096.8699	-1245.4515	1592.7025	1110.6801	988.90198	1664.2427	1162.2814	955.90289	1702.3416	1181.136	922.77985	1662.0021	1215.1177	939.74127	1659.3826	1159.9139	998.95984	1668.4564	-1579.5139	1058.698	1669.964	-1518.6802	1024.9139	1708.0013	-1551.1488	1059.2031	1672.1141	-1585.5029	-261.33392	164.2574	-221.60249	-346.76044	172.89537	-224.68256	-303.2757	128.93616	-221.80821	-299.61636	169.41327	-191.70732	-297.96695	166.3475	-270.20383																																														-1068.7251	210.04529	-1624.999	-1073.9398	248.68857	-1624.2885	-1321.5592	231.431	1025.0984	-1320.1119	270.18176	1029.2557	847.98816	183.98776	1196.2095	851.36383	222.78142	1194.0514	1088.8182	202.54858	-1428.1273	1082.7823	240.87152	-1432.1172	-1171.9186	1686.9469	-1581.7498	-1170.5867	1647.9702	-1581.5361	-1270.6697	1698.7196	1098.0961	-1270.9449	1659.7415	1099.3689	953.65973	1704.9313	1182.4176	973.02936	1731.8589	1161.9062	1026.3625	1669.1478	-1551.6084	1027.8157	1630.1776	-1552.0697	-299.27432	168.09378	-222.97044	-295.31146	206.87483	-224.12149
131	1.0833333	-1038.2235	214.48825	-1644.2317	-1109.3947	204.0679	-1599.29	-1063.7714	173.16087	-1625.7004	-1054.2362	262.2309	-1634.9982	-1353.0947	234.77765	1003.7637	-1281.3402	227.07585	1052.4911	-1322.8457	193.75813	1021.0278	-1284.7671	287.81873	1052.8271	813.96399	187.69632	1209.5549	892.5896	179.11765	1178.7667	844.62451	145.29135	1198.3572	860.62463	292.66766	1167.474	1115.6759	209.53247	-1401.6229	1056.1743	194.04938	-1460.3447	1095.0975	162.39052	-1423.9323	1069.8013	238.57753	-1425.8027	-1204.5314	1685.9236	-1563.1902	-1129.1774	1688.2501	-1606.0037	-1173.197	1724.4315	-1581.9641	-1134.0879	1580.95	-1603.89	-1239.6871	1699.2313	1119.5101	-1309.0896	1698.3251	1071.7496	-1270.4229	1736.2843	1096.8818	-1245.5016	1592.7617	1110.6992	988.89441	1664.2189	1162.2819	955.81195	1702.4955	1181.126	922.83075	1661.9929	1215.0875	939.77179	1659.4241	1159.9281	998.98535	1668.4578	-1579.4882	1058.7045	1669.9662	-1518.6731	1024.9187	1708.0138	-1551.1403	1059.2125	1672.1134	-1585.5098	-261.36554	164.2702	-221.54788	-346.75354	172.90369	-224.68549	-303.27774	129.06805	-221.86714	-299.68665	169.4337	-191.96915	-297.97028	166.32483	-270.19144																																														-1068.7129	210.0242	-1624.9788	-1073.8936	248.67117	-1624.2222	-1321.6039	231.39755	1025.1486	-1320.3256	270.14508	1029.3906	848.01019	183.98161	1196.223	851.40491	222.77461	1194.0833	1088.8046	202.54022	-1428.1418	1082.7977	240.86475	-1432.1603	-1171.9047	1686.9308	-1581.7274	-1170.5615	1647.9547	-1581.4813	-1270.7805	1698.8252	1098.1125	-1271.1528	1659.848	1099.3932	953.76001	1704.8694	1182.2947	973.14911	1731.748	1161.7375	1026.3698	1669.1494	-1551.6012	1027.8246	1630.1793	-1552.0634	-299.29129	168.10483	-222.94147	-295.33069	206.88852	-224.00887
